{"title":"The Adjustment Bureau 2011 PPRIP 7SPEED","uid":6374417,"size":739535293,"categoryP":"video","categoryS":"movies","magnet":"?xt=urn:btih:6f5a031ec36003c78b4f4bd76c5206b5d7b86fc8&amp;dn=The+Adjustment+Bureau+2011+PPRIP+7SPEED&amp;tr=udp%3A%2F%2Ftracker.openbittorrent.com%3A80&amp;tr=udp%3A%2F%2Fopen.demonii.com%3A1337&amp;tr=udp%3A%2F%2Ftracker.coppersurfer.tk%3A6969&amp;tr=udp%3A%2F%2Fexodus.desync.com%3A6969","seeders":2,"leechers":0,"uploader":"IwannaFan2","files":7,"time":1304801321,"description":"The Adjustment Bureau 2011 PPRIP 7SPEED &lt;a href=&quot;\nhttp://www.imdb.com/title/tt1385826/&quot; rel=&quot;nofollow&quot; target=&quot;_NEW&quot;&gt;\nhttp://www.imdb.com/title/tt1385826/&lt;/a&gt;\n\nLanguage                         : English\nFormat/Info                      : Audio Video Interleave\nFile size                        : 700 MiB\nDuration                         : 1h 45mn\nOverall bit rate                 : 932 Kbps\n\nVideo\nID                               : 0\nFormat                           : MPEG-4 Visual\nFormat settings, BVOP            : Yes\nFormat settings, QPel            : No\nFormat settings, GMC             : No warppoints\nFormat settings, Matrix          : Default (H.263)\nCodec ID                         : DX50\nCodec ID/Hint                    : DivX 5\nDuration                         : 1h 45mn\nBit rate                         : 792 Kbps\nWidth                            : 640 pixels\nHeight                           : 480 pixels\nDisplay aspect ratio             : 4:3\nFrame rate                       : 29.970 fps\nResolution                       : 24 bits\nColorimetry                      : 4:2:0\nScan type                        : Progressive\nBits/(Pixel*Frame)               : 0.086\nStream size                      : 595 MiB (85%)\nWriting library                  : DivX 2151n\n\nAudio\nID                               : 1\nFormat                           : MPEG Audio\nFormat version                   : Version 1\nFormat profile                   : Layer 3\nCodec ID                         : 55\nCodec ID/Hint                    : MP3\nDuration                         : 1h 45mn\nBit rate mode                    : Constant\nBit rate                         : 128 Kbps\nChannel(s)                       : 2 channels\nSampling rate                    : 48.0 KHz\nResolution                       : 16 bits\nStream size                      : 96.2 MiB (14%)\nAlignment                        : Aligned on interleaves\nInterleave, duration             : 33 ms (1.00 video frame)\n\nRelease notes...\n\nVideo source: IFLIX\nAudio source: IFLIX\n\nGreetz to all other groups out there.\nThanks to IFLIX for the source.","torrent":{"xt":"urn:btih:6f5a031ec36003c78b4f4bd76c5206b5d7b86fc8","amp;dn":"The+Adjustment+Bureau+2011+PPRIP+7SPEED","amp;tr":["udp%3A%2F%2Ftracker.openbittorrent.com%3A80","udp%3A%2F%2Fopen.demonii.com%3A1337","udp%3A%2F%2Ftracker.coppersurfer.tk%3A6969","udp%3A%2F%2Fexodus.desync.com%3A6969"],"infoHash":"6f5a031ec36003c78b4f4bd76c5206b5d7b86fc8","infoHashBuffer":{"type":"Buffer","data":[111,90,3,30,195,96,3,199,139,79,75,215,108,82,6,181,215,184,111,200]},"announce":[],"urlList":[]}}